<?xml version="1.0" standalone="no"?>
<!DOCTYPE svg PUBLIC "-//W3C//DTD SVG 20010904//EN"
 "http://www.w3.org/TR/2001/REC-SVG-20010904/DTD/svg10.dtd">
<svg version="1.0" xmlns="http://www.w3.org/2000/svg"
 width="700.000000pt" height="700.000000pt" viewBox="0 0 700.000000 700.000000"
 preserveAspectRatio="xMidYMid meet">
<metadata>
Created by potrace 1.11, written by Peter Selinger 2001-2013
</metadata>
<g transform="translate(0.000000,700.000000) scale(0.100000,-0.100000)"
fill="#000000" stroke="none">
<path d="M3441 6902 c-55 -97 -163 -284 -181 -312 -6 -8 -15 -24 -21 -35 -10
-20 -19 -20 -592 -20 l-582 1 -32 -51 c-18 -27 -33 -54 -33 -58 0 -4 -9 -20
-19 -35 -40 -58 -189 -322 -183 -325 4 -2 265 -3 580 -3 314 1 572 -3 572 -7
0 -5 -36 -69 -80 -144 -44 -74 -80 -139 -80 -144 0 -11 55 -10 -606 -11 l-570
-1 -149 -256 c-82 -141 -195 -337 -252 -436 -57 -99 -107 -187 -112 -195 -9
-14 -137 -236 -202 -349 -48 -84 -209 -363 -401 -693 l-189 -327 132 -228 c72
-125 143 -248 157 -273 14 -25 36 -62 49 -82 12 -21 23 -39 23 -42 0 -2 52
-92 115 -200 63 -108 125 -215 138 -239 13 -23 57 -98 97 -167 40 -69 86 -150
103 -180 17 -30 38 -67 49 -82 10 -14 18 -28 18 -31 0 -3 20 -39 44 -80 52
-88 187 -322 224 -386 46 -82 82 -146 92 -161 5 -8 21 -36 35 -61 l26 -46 580
0 c487 0 582 -2 593 -14 21 -23 166 -280 162 -288 -2 -3 -263 -6 -580 -6
l-575 0 23 -40 c13 -22 34 -58 46 -80 11 -22 32 -58 45 -80 14 -22 51 -88 84
-146 33 -58 66 -110 73 -116 8 -6 229 -9 588 -8 633 1 579 6 613 -58 11 -19
96 -168 166 -290 13 -23 35 -59 49 -81 l24 -39 25 44 c14 24 35 62 47 84 83
147 191 331 197 335 4 3 267 5 586 5 l578 0 68 114 c37 62 67 115 67 116 0 2
17 32 38 66 21 35 52 89 70 119 l31 55 -580 0 c-318 0 -579 3 -579 6 0 7 31
62 102 184 16 28 36 65 45 82 9 18 24 33 32 34 9 0 273 1 587 1 l572 1 23 41
c12 23 41 73 64 111 23 39 55 95 72 125 17 30 79 138 138 240 60 102 118 203
131 225 12 22 38 67 58 100 19 33 45 78 57 99 20 37 362 630 408 707 11 19 26
45 34 59 21 39 203 354 263 457 l54 92 -20 35 c-11 20 -28 51 -39 69 -10 17
-75 129 -143 247 -68 118 -187 323 -263 455 -76 132 -177 308 -225 390 -48 83
-97 166 -107 185 -11 19 -69 121 -130 225 -60 105 -169 294 -243 421 l-133
231 -577 0 c-317 0 -582 3 -588 6 -7 5 -137 222 -177 297 -2 3 259 5 580 5
321 0 582 2 580 5 -85 151 -243 422 -255 440 l-18 25 -580 0 -581 0 -29 50
c-136 232 -232 399 -232 406 0 25 -20 -1 -69 -89z m150 -997 c44 -76 77 -140
75 -143 -7 -6 -325 -7 -331 0 -3 3 27 61 66 129 40 68 77 134 83 146 6 12 15
18 19 14 4 -4 44 -70 88 -146z m-1091 -625 c0 -5 -23 -48 -51 -97 -28 -48 -59
-101 -69 -118 -9 -16 -43 -75 -75 -130 -32 -55 -101 -174 -153 -265 -52 -91
-126 -218 -164 -283 -37 -65 -68 -121 -68 -124 0 -4 -6 -14 -14 -22 -7 -9 -27
-41 -43 -71 -16 -30 -41 -73 -55 -95 -13 -22 -28 -47 -31 -55 -4 -8 -17 -31
-28 -50 -12 -19 -77 -132 -146 -252 -114 -197 -124 -218 -112 -240 6 -12 112
-196 234 -408 123 -212 232 -401 242 -420 11 -20 53 -92 93 -160 40 -69 82
-141 93 -160 10 -19 36 -64 57 -100 37 -63 52 -91 112 -195 16 -27 33 -57 38
-65 41 -65 130 -223 135 -239 6 -19 -1 -19 -297 -19 -260 0 -305 2 -320 15
-10 9 -18 19 -18 23 0 4 -30 59 -66 121 -72 123 -315 543 -345 596 -10 18 -94
164 -187 325 -94 161 -179 309 -190 328 -10 19 -64 113 -120 208 l-100 173 43
72 c23 40 113 196 200 347 87 151 182 315 211 364 30 48 54 90 54 93 0 3 40
73 89 156 105 181 279 482 299 517 7 14 26 48 43 75 16 28 43 75 60 106 l32
56 308 1 c170 0 309 -3 309 -8z m1655 -354 c114 -198 220 -381 235 -406 15
-25 98 -169 185 -320 87 -151 214 -371 282 -488 l123 -214 -34 -56 c-19 -32
-45 -76 -57 -98 -25 -42 -183 -317 -199 -344 -21 -36 -115 -198 -133 -230 -10
-19 -71 -125 -135 -235 -64 -110 -121 -209 -127 -220 -11 -20 -67 -116 -85
-145 -5 -8 -62 -107 -126 -220 -65 -113 -124 -213 -132 -222 -13 -15 -54 -17
-457 -16 l-443 0 -83 145 c-46 80 -96 166 -112 192 -15 25 -30 53 -34 61 -3 8
-14 26 -23 40 -10 14 -28 45 -42 70 -14 25 -109 191 -213 370 -103 179 -196
341 -207 360 -11 19 -44 76 -73 125 -29 50 -96 166 -149 258 l-96 168 74 127
c85 147 506 876 651 1127 54 94 143 249 198 345 56 96 105 178 109 181 5 3
208 6 452 6 l442 1 209 -362z m987 314 c15 -25 31 -52 35 -60 4 -8 32 -58 63
-110 31 -52 59 -102 63 -110 4 -8 11 -22 17 -30 20 -32 256 -438 317 -549 14
-24 96 -165 182 -315 259 -445 321 -555 321 -566 0 -9 -54 -106 -145 -262 -5
-9 -40 -70 -78 -135 -76 -133 -96 -168 -175 -303 -30 -52 -87 -151 -127 -220
-40 -69 -114 -197 -165 -285 -51 -88 -104 -180 -118 -205 -70 -124 -205 -356
-213 -366 -7 -8 -100 -12 -319 -12 l-310 0 11 21 c7 11 36 61 65 110 30 49 54
91 54 92 0 1 30 54 66 116 36 63 127 220 201 349 74 129 139 240 143 245 4 6
21 35 37 65 17 30 120 210 230 400 110 190 205 356 212 368 11 21 6 35 -52
135 -36 62 -77 135 -92 162 -16 28 -46 78 -67 113 -21 34 -38 64 -38 66 0 2
-140 247 -170 296 -8 14 -256 441 -309 534 -13 22 -75 131 -138 241 -64 110
-124 214 -134 231 l-19 32 312 -2 312 -1 28 -45z m-1477 -4002 c7 -7 -155
-288 -165 -288 -5 0 -39 53 -76 118 -91 159 -95 165 -85 172 11 6 320 5 326
-2z"/>
</g>
</svg>
